<svg width="135" height="167" viewBox="0 0 135 167" fill="none" xmlns="http://www.w3.org/2000/svg">
<path fill-rule="evenodd" clip-rule="evenodd" d="M47.7371 26.1748L101.675 40.1964L101.209 25.5415L47.2745 11.52L47.7371 26.1748ZM61.0841 0.291561C63.1617 0.0986276 65.2667 0 67.3947 0C81.5759 0 94.7341 4.38015 105.59 11.8613L61.0841 0.291561ZM37.2955 7.07836C15.1834 18.1344 0 40.9919 0 67.3947C0 74.3748 1.06113 81.1072 3.03088 87.4391C3.64704 73.5255 13.4093 61.9866 25.7152 61.157C30.8586 60.813 35.6391 62.442 39.6153 65.3985L38.288 38.5339L37.8162 23.5959L37.3536 8.93795L37.2955 7.07836ZM18.7844 114.076C27.9421 123.61 39.8775 130.456 53.2893 133.312C57.8382 134.281 71.5 166.5 67.3947 166.5C69.889 166.5 72.3516 157.935 74.7757 149.504C77.0531 141.584 79.2965 133.781 81.5 133.312C83.4392 132.899 85.3476 132.403 87.2212 131.827C76.0698 130.366 67.293 119.821 66.8713 106.443C66.3996 91.4777 76.5624 78.6375 89.5736 77.7575C94.717 77.4135 99.4975 79.0425 103.471 81.999L102.146 55.1344L48.2118 41.1129L50.0866 85.4093L49.9747 85.3788C49.9882 85.5755 50.0176 85.7661 50.047 85.9566C50.0831 86.1907 50.1192 86.4247 50.1259 86.6698C50.6006 101.635 40.4348 114.475 27.4236 115.352C24.396 115.556 21.4811 115.094 18.7844 114.076ZM109.849 119.741C125.066 107.383 134.789 88.5245 134.789 67.3947C134.789 46.6831 125.446 28.1532 110.744 15.7902L110.885 20.1887L111.133 28.1205L111.596 42.7753L112.064 57.7134L113.942 102.01L113.827 101.982C113.842 102.176 113.872 102.365 113.901 102.553C113.939 102.788 113.976 103.024 113.984 103.27C114.175 109.325 112.625 115.032 109.849 119.741Z" fill="#2A3777"/>
</svg>
